<svg data-v-0dd9719b="" version="1.0" xmlns="http://www.w3.org/2000/svg" xmlns:xlink="http://www.w3.org/1999/xlink" width="100%" height="100%" viewBox="0 0 340.000000 250.000000" preserveAspectRatio="xMidYMid meet" color-interpolation-filters="sRGB" style="margin: auto;"> <rect data-v-0dd9719b="" x="0" y="0" width="100%" height="100%" fill="#ffffff" fill-opacity="1" class="background"></rect> <rect data-v-0dd9719b="" x="0" y="0" width="100%" height="100%" fill="url(#watermark)" fill-opacity="1" class="watermarklayer"></rect> <g data-v-0dd9719b="" fill="#cc2229" class="icon-text-wrapper icon-svg-group iconsvg" transform="translate(48.17000579834384,95.44218444824219)"><g class="iconsvg-imagesvg" transform="translate(0,0)"><g><rect fill="#cc2229" fill-opacity="0" stroke-width="2" x="0" y="0" width="60" height="59.115630172617635" class="image-rect"></rect> <svg filter="url(#colors7227321326)" x="0" y="0" width="60" height="59.115630172617635" filtersec="colorsf834913726" class="image-svg-svg primary" style="overflow: visible;"><svg version="1.1" id="Capa_1" xmlns="http://www.w3.org/2000/svg" xmlns:xlink="http://www.w3.org/1999/xlink" x="0px" y="0px" viewBox="0.00007346458733081818 0.8060735464096069 109.2880859375 107.67684173583984" style="enable-background:new 0 0 109.288 109.288;" xml:space="preserve"><g> <g> <path d="M50.952,28.755c0.591-0.102,0.912-0.925,0.43-1.121c-3.111-1.268-7.328-4.245-6.012-8.022 c0.724-2.077,1.628-1.615,4.174-5.595c2.575-4.026-1.066-10.924-7.527-10.328c-6.586,0.606-8.183,10.313-5.712,15.827 C38.824,25.138,45.715,29.779,50.952,28.755z"></path> <path d="M53.5,27.309c6.209,2.275,11.812-5.81,11.945-11.85C65.581,9.3,61.344,2.153,56.175,0.833 c-0.577-0.162-1.221,0.444-0.869,0.829c2.268,2.479,4.799,6.976,1.992,9.825c-1.544,1.565-2.163,0.76-6.17,3.265 C47.076,17.285,47.408,25.077,53.5,27.309z"></path> <path d="M58.236,80.534c-0.59,0.101-0.912,0.924-0.43,1.12c3.112,1.268,7.327,4.245,6.011,8.022 c-0.723,2.076-1.628,1.614-4.174,5.596c-2.574,4.026,1.067,10.923,7.527,10.327c6.585-0.605,8.182-10.312,5.712-15.827 C70.364,84.15,63.473,79.509,58.236,80.534z"></path> <path d="M55.688,81.979c-6.209-2.275-11.813,5.81-11.946,11.85c-0.135,6.158,4.102,13.306,9.27,14.627 c0.578,0.162,1.222-0.444,0.869-0.829c-2.268-2.479-4.8-6.976-1.991-9.824c1.543-1.566,2.163-0.76,6.169-3.266 C62.113,92.003,61.781,84.211,55.688,81.979z"></path> <path d="M27.948,58.221c-0.101-0.59-0.924-0.913-1.121-0.43c-1.268,3.111-4.244,7.326-8.022,6.01 c-2.076-0.723-1.614-1.627-5.595-4.173c-4.026-2.576-10.924,1.065-10.328,7.525c0.606,6.586,10.313,8.183,15.827,5.712 C24.332,70.348,28.972,63.457,27.948,58.221z"></path> <path d="M10.68,51.874c1.565,1.543,0.76,2.164,3.265,6.17c2.533,4.052,10.326,3.72,12.558-2.373 c2.276-6.209-5.81-11.814-11.85-11.946C8.495,43.59,1.347,47.826,0.027,52.996c-0.162,0.577,0.444,1.221,0.829,0.868 C3.334,51.598,7.831,49.065,10.68,51.874z"></path> <path d="M81.339,50.875c0.101,0.591,0.924,0.913,1.122,0.43c1.267-3.111,4.244-7.327,8.021-6.011 c2.076,0.724,1.614,1.628,5.596,4.174c4.025,2.576,10.923-1.066,10.326-7.527c-0.605-6.585-10.312-8.182-15.825-5.711 C84.957,38.748,80.314,45.639,81.339,50.875z"></path> <path d="M108.433,55.231c-2.479,2.269-6.976,4.799-9.825,1.991c-1.564-1.544-0.76-2.163-3.265-6.17 C92.81,47,85.017,47.333,82.786,53.425c-2.276,6.209,5.809,11.812,11.849,11.945c6.159,0.135,13.306-4.102,14.626-9.271 C109.424,55.523,108.816,54.879,108.433,55.231z"></path> <path d="M16.519,42.633c5.755,2.194,13.91,0.602,16.889-3.823c0.347-0.489-0.008-1.299-0.489-1.097 c-3.096,1.304-8.181,2.18-9.922-1.422c-0.957-1.979,0.01-2.292-1.004-6.908c-1.026-4.668-8.479-6.97-12.625-1.98 C5.139,32.488,10.873,40.481,16.519,42.633z"></path> <path d="M17.331,16.572c3.356,0.15,8.326,1.539,8.354,5.539c0.015,2.199-0.992,2.067-2.054,6.672 c-1.074,4.657,4.671,9.932,10.557,7.203c6-2.782,4.246-12.461,0.068-16.826c-4.259-4.451-12.309-6.508-16.896-3.787 C16.836,15.665,16.809,16.549,17.331,16.572z"></path> <path d="M38.599,75.564c-0.489-0.347-1.299,0.01-1.096,0.489c1.303,3.096,2.179,8.182-1.423,9.922 c-1.979,0.957-2.292-0.01-6.908,1.005c-4.667,1.026-6.969,8.479-1.98,12.625c5.085,4.229,13.078-1.508,15.23-7.152 C44.617,86.697,43.025,78.543,38.599,75.564z"></path> <path d="M35.774,74.786c-2.781-6-12.461-4.246-16.826-0.068c-4.45,4.259-6.508,12.309-3.786,16.896 c0.293,0.523,1.177,0.551,1.2,0.029c0.149-3.356,1.539-8.326,5.539-8.354c2.198-0.016,2.066,0.992,6.671,2.055 C33.229,86.417,38.503,80.67,35.774,74.786z"></path> <path d="M93.022,66.861c-5.755-2.193-13.91-0.602-16.889,3.823c-0.347,0.489,0.008,1.299,0.489,1.098 c3.096-1.305,8.182-2.181,9.922,1.422c0.957,1.979-0.01,2.292,1.005,6.907c1.026,4.668,8.479,6.972,12.626,1.98 C104.403,77.006,98.669,69.014,93.022,66.861z"></path> <path d="M92.212,92.922c-3.356-0.149-8.326-1.539-8.354-5.539c-0.016-2.198,0.992-2.066,2.056-6.671 c1.073-4.656-4.672-9.933-10.559-7.202c-6,2.781-4.245,12.46-0.067,16.826c4.26,4.45,12.309,6.508,16.897,3.787 C92.707,93.83,92.733,92.946,92.212,92.922z"></path> <path d="M70.672,33.702c0.489,0.347,1.299-0.008,1.097-0.489c-1.304-3.096-2.179-8.182,1.422-9.923 c1.98-0.956,2.292,0.01,6.908-1.004c4.668-1.026,6.97-8.479,1.981-12.625c-5.086-4.228-13.078,1.507-15.23,7.153 C64.655,22.568,66.247,30.723,70.672,33.702z"></path> <path d="M73.498,34.481c2.78,6,12.461,4.246,16.826,0.068c4.45-4.259,6.508-12.309,3.786-16.897 c-0.293-0.522-1.177-0.549-1.198-0.029c-0.15,3.356-1.54,8.327-5.54,8.354c-2.198,0.016-2.066-0.991-6.671-2.054 C76.043,22.851,70.768,28.596,73.498,34.481z"></path> </g></g></svg></svg> <defs><filter id="colors7227321326"><feColorMatrix type="matrix" values="0 0 0 0 0.3125  0 0 0 0 0.3671875  0 0 0 0 0.5234375  0 0 0 1 0" class="icon-fecolormatrix"></feColorMatrix></filter> <filter id="colorsf834913726"><feColorMatrix type="matrix" values="0 0 0 0 0.99609375  0 0 0 0 0.99609375  0 0 0 0 0.99609375  0 0 0 1 0" class="icon-fecolormatrix"></feColorMatrix></filter> <filter id="colorsb3376251432"><feColorMatrix type="matrix" values="0 0 0 0 0  0 0 0 0 0  0 0 0 0 0  0 0 0 1 0" class="icon-fecolormatrix"></feColorMatrix></filter></defs></g></g> <g transform="translate(67,1.4915637969970703)"><g data-gra="path-name" fill-rule="" class="tp-name iconsvg-namesvg" transform="translate(0,0)"><g transform="scale(1)"><g><path d="M13.45-32.34L13.45-32.34 11.47-29.75Q9.18-32.08 4.48-34.63L4.48-34.63Q4.22-34.76 4.04-34.85L4.04-34.85 5.93-37.22Q11.25-34.63 13.45-32.34ZM11.34-20.74L11.34-20.74 9.4-18.06Q7.12-20.3 2.15-22.68L2.15-22.68Q1.98-22.76 1.85-22.81L1.85-22.81 3.74-25.22Q9.05-22.81 11.34-20.74ZM5.93 2.86L5.93 2.86 2.99 0.88Q6.68-5.45 9.93-13.49L9.93-13.49 12.57-11.65Q9.45-3.87 5.93 2.86ZM42.8-32.08L42.8-29 20.35-29Q18.11-23.99 15.29-20.65L15.29-20.65Q14.11-21.88 12.61-22.76L12.61-22.76Q17.23-27.82 19.78-36.96L19.78-36.96Q19.91-37.35 20-37.71L20-37.71 23.25-36.96Q22.46-34.23 21.62-32.08L21.62-32.08 42.8-32.08ZM31.99-7.82L31.99-7.82 30.06-5.93Q28.08-8.31 24.08-10.85L24.08-10.85Q23.99-10.94 23.91-10.99L23.91-10.99 25.8-12.61Q29.66-10.28 31.99-7.82ZM19.51-5.84L19.51-5.84 35.64-5.84Q35.86-8.22 36.08-12.79L36.08-12.79 20.39-12.79Q20.21-11.29 19.86-8.44L19.86-8.44Q19.6-6.68 19.51-5.84ZM36.43-22.19L36.43-22.19 21.36-22.19Q21.23-20.87 20.96-18.06L20.96-18.06Q20.79-16.48 20.7-15.69L20.7-15.69 30.5-15.69Q28.7-17.84 24.96-20.08L24.96-20.08Q24.79-20.17 24.65-20.26L24.65-20.26 26.46-21.97Q30.32-19.78 32.39-17.53L32.39-17.53 30.59-15.69 36.21-15.69Q36.25-16.79 36.34-19.25L36.34-19.25Q36.39-21.18 36.43-22.19ZM43.24-15.69L43.24-12.79 39.16-12.79Q38.94-8.22 38.72-5.84L38.72-5.84 42.8-5.84 42.8-2.99 38.41-2.99Q37.88 0.7 37.05 1.76L37.05 1.76Q36.17 3.12 34.15 3.34L34.15 3.34Q34.06 3.34 34.01 3.34L34.01 3.34Q31.64 3.52 28.34 3.3L28.34 3.3Q28.13 1.41 27.51 0.48L27.51 0.48Q29.79 0.66 32.7 0.66L32.7 0.66Q33.84 0.7 34.32 0.04L34.32 0.04Q34.94-0.75 35.29-2.99L35.29-2.99 19.12-2.99 18.81-0.7 15.6-1.05Q16.66-7.29 17.31-12.79L17.31-12.79 12.74-12.79 12.74-15.69 17.67-15.69Q18.37-22.32 18.59-24.92L18.59-24.92 39.59-24.92Q39.59-24.87 39.55-23.38L39.55-23.38Q39.42-19.42 39.29-15.69L39.29-15.69 43.24-15.69ZM79.01-8.13L79.01-5.36 68.99-5.36 68.99 2.55 65.79 2.55 65.79-5.36 56.12-5.36 56.12-8.13 65.79-8.13 65.79-12.7 57.04-12.7 57.04-15.42 61.79-15.42Q61.04-18.15 59.33-20.74L59.33-20.74 61.96-21.4Q63.9-18.59 64.56-16.22L64.56-16.22 62.14-15.42 70.18-15.42Q71.76-18.54 72.77-21.62L72.77-21.62 75.76-20.92Q74.58-18.24 73.17-15.42L73.17-15.42 78.27-15.42 78.27-12.7 68.99-12.7 68.99-8.13 79.01-8.13ZM87.23-33.18L87.23-30.01 68.86-30.01Q68.73-28.96 68.38-26.89L68.38-26.89Q68.2-25.75 68.12-25.22L68.12-25.22 84.81-25.22 84.81-0.44Q84.81 1.98 83.45 2.72L83.45 2.72Q83.14 2.86 82.88 2.94L82.88 2.94Q81.3 3.47 75.28 3.47L75.28 3.47Q74.88 1.98 74.09 0.44L74.09 0.44Q78.44 0.66 80.42 0.53L80.42 0.53Q81.34 0.13 81.43-0.44L81.43-0.44 81.43-22.15 53.61-22.15 53.61 3.43 50.32 3.43 50.32-25.22 64.95-25.22Q65.17-26.76 65.52-30.01L65.52-30.01 47.9-30.01 47.9-33.18 65.83-33.18Q66.09-36.52 66.14-37.71L66.14-37.71 69.74-37.31Q69.61-35.95 69.26-33.18L69.26-33.18 87.23-33.18ZM127.66-22.5L127.66-25.14 120.32-25.14 120.32-22.5 127.66-22.5ZM120.32-20.26L120.32-17.62 127.66-17.62 127.66-20.26 120.32-20.26ZM110.57-20.26L110.57-17.62 117.33-17.62 117.33-20.26 110.57-20.26ZM117.33-22.5L117.33-25.14 110.57-25.14 110.57-22.5 117.33-22.5ZM107.62-27.6L117.33-27.6 117.33-30.1 105.21-30.1 105.21-32.7 117.33-32.7 117.33-37.66 120.32-37.66 120.32-32.7 128.14-32.7Q125.29-34.54 122.92-35.64L122.92-35.64 124.45-37.49Q128.14-36.04 130.78-34.15L130.78-34.15 129.64-32.7 132.98-32.7 132.98-30.1 120.32-30.1 120.32-27.6 130.69-27.6 130.69-12.39 127.66-12.39 127.66-15.38 120.32-15.38 120.32-12.52 117.33-12.52 117.33-15.38 110.57-15.38 110.57-12.39 107.62-12.39 107.62-27.6ZM106-25.8L106-22.72 100.72-22.72 100.72 3.38 97.51 3.38 97.51-22.72 91.93-22.72 91.93-25.8 97.51-25.8 97.51-37.62 100.72-37.62 100.72-25.8 106-25.8ZM108.72-5.32L108.72-5.32 111.01-6.99Q114.65-4.22 116.67-1.54L116.67-1.54Q116.81-1.36 116.89-1.23L116.89-1.23 114.48 0.66Q112.76-1.98 109.12-5.01L109.12-5.01Q108.9-5.19 108.72-5.32ZM126.3-10.11L133.2-10.11 133.2-7.29 126.3-7.29 126.3-0.04Q126.3 2.07 125.2 2.68L125.2 2.68Q124.94 2.86 124.63 2.94L124.63 2.94Q123.31 3.38 118.26 3.38L118.26 3.38Q117.99 1.89 117.29 0.57L117.29 0.57Q120.98 0.7 122.34 0.62L122.34 0.62Q123.09 0.4 123.13-0.09L123.13-0.09 123.13-7.29 103.89-7.29 103.89-10.11 123.13-10.11 123.13-13.62 126.3-13.62 126.3-10.11ZM155.35-37.53L155.35-37.53 158.95-37.53Q163.96-30.63 172.31-25.44L172.31-25.44Q175.47-23.51 178.51-22.19L178.51-22.19Q177.45-21.01 176.26-19.07L176.26-19.07Q168.4-22.94 161.94-29.05L161.94-29.05Q159.13-31.68 157.32-34.15L157.32-34.15Q153.59-28.61 146.07-23.25L146.07-23.25Q142.43-20.65 138.74-18.81L138.74-18.81Q137.59-20.74 136.63-21.67L136.63-21.67Q144.67-25.49 151.04-32.12L151.04-32.12Q153.72-34.89 155.35-37.53ZM157.63-6.72L157.63-6.72 155.13-4.04Q152.84-7.03 148.45-10.9L148.45-10.9Q145.63-1.54 139.83 3.43L139.83 3.43Q138.56 2.29 136.8 1.23L136.8 1.23Q144.23-4.35 146.47-17.89L146.47-17.89Q146.73-19.51 146.95-21.27L146.95-21.27 150.47-20.92Q149.94-17.09 149.37-14.41L149.37-14.41Q154.6-10.37 157.5-6.9L157.5-6.9Q157.59-6.77 157.63-6.72ZM163.65-21.27L163.65-21.27 167.21-20.87Q166.99-19.29 166.46-16.44L166.46-16.44Q169.15-6.15 175.69-1.27L175.69-1.27Q176.97-0.35 178.29 0.31L178.29 0.31Q176.88 1.58 175.87 3.38L175.87 3.38Q168.79-0.83 165.01-10.85L165.01-10.85Q161.89-1.49 155.61 3.47L155.61 3.47Q154.51 2.46 152.58 1.23L152.58 1.23Q160.88-4.39 163.26-18.46L163.26-18.46Q163.48-19.82 163.65-21.27Z" transform="translate(-1.850000023841858, 37.709999084472656)"></path></g> <!----> <!----> <!----> <!----> <!----> <!----> <!----></g></g> <g data-gra="path-slogan" fill-rule="" class="tp-slogan iconsvg-slogansvg" fill="#cc2229" transform="translate(34.74999237060547,47.18000030517578)"><!----> <!----> <g transform="scale(1, 1)"><g transform="scale(1)"><path d="M2.06-5.06L6.56-5.06L6.56-8.58L7.73-8.58L7.73 0L6.56 0L6.56-3.98L2.06-3.98L2.06 0L0.89 0L0.89-8.58L2.06-8.58L2.06-5.06ZM15.19 0L14.34-2.48L10.88-2.48L9.98 0L8.81 0L12.05-8.58L13.36-8.58L16.45 0L15.19 0ZM12.61-7.31L11.25-3.52L13.92-3.52L12.66-7.31L12.61-7.31ZM17.67-8.58L18.84-8.58L18.84 0L17.67 0L17.67-8.58ZM22.22-8.58L26.53-1.64L26.53-8.58L27.66-8.58L27.66 0L26.34 0L21.98-6.94L21.94-6.94L21.94 0L20.81 0L20.81-8.58L22.22-8.58ZM35.11 0L34.27-2.48L30.80-2.48L29.91 0L28.73 0L31.97-8.58L33.28-8.58L36.38 0L35.11 0ZM32.53-7.31L31.17-3.52L33.84-3.52L32.58-7.31L32.53-7.31ZM38.81-8.58L43.13-1.64L43.13-8.58L44.25-8.58L44.25 0L42.94 0L38.58-6.94L38.53-6.94L38.53 0L37.41 0L37.41-8.58L38.81-8.58ZM52.59-7.64L50.53-7.64L50.53-4.97L52.59-4.97Q54.42-4.92 54.38-6.38L54.38-6.38Q54.38-7.64 52.59-7.64L52.59-7.64ZM53.06 0L49.36 0L49.36-8.58L53.16-8.58Q55.45-8.48 55.55-6.42L55.55-6.42Q55.55-5.16 54.42-4.64L54.42-4.64Q56.02-4.08 56.02-2.53L56.02-2.53Q55.88-0.09 53.06 0L53.06 0ZM52.78-3.98L50.53-3.98L50.53-0.98L53.02-0.98Q54.80-1.03 54.84-2.53L54.84-2.53Q54.84-3.98 52.78-3.98L52.78-3.98ZM64.13-4.27L64.13-4.27Q63.94-7.64 61.13-7.83L61.13-7.83Q58.27-7.69 58.13-4.27L58.13-4.27Q58.27-0.94 61.13-0.80L61.13-0.80Q63.94-0.98 64.13-4.27ZM65.30-4.27L65.30-4.27Q65.02 0 61.13 0.14L61.13 0.14Q57.19 0 56.91-4.27L56.91-4.27Q57.14-8.72 61.13-8.81L61.13-8.81Q65.02-8.67 65.30-4.27ZM67.50-1.03L72.80-1.03L72.80 0L66.05 0L66.05-0.94L71.30-7.59L66.42-7.59L66.42-8.58L72.80-8.58L72.80-7.59L67.50-1.03ZM75.09-5.06L79.59-5.06L79.59-8.58L80.77-8.58L80.77 0L79.59 0L79.59-3.98L75.09-3.98L75.09 0L73.92 0L73.92-8.58L75.09-8.58L75.09-5.06ZM89.34-4.27L89.34-4.27Q89.16-7.64 86.34-7.83L86.34-7.83Q83.48-7.69 83.34-4.27L83.34-4.27Q83.48-0.94 86.34-0.80L86.34-0.80Q89.16-0.98 89.34-4.27ZM90.52-4.27L90.52-4.27Q90.23 0 86.34 0.14L86.34 0.14Q82.41 0 82.13-4.27L82.13-4.27Q82.36-8.72 86.34-8.81L86.34-8.81Q90.23-8.67 90.52-4.27ZM93.28-8.58L97.59-1.64L97.59-8.58L98.72-8.58L98.72 0L97.41 0L93.05-6.94L93-6.94L93 0L91.88 0L91.88-8.58L93.28-8.58ZM106.92-3.61L104.30-3.61L104.30-4.59L108.05-4.59L108.05 0L107.30 0L107.02-1.08Q106.03 0.09 104.20 0.14L104.20 0.14Q102.47 0.14 101.53-0.75L101.53-0.75Q100.13-2.06 100.17-4.36L100.17-4.36Q100.50-8.63 104.25-8.81L104.25-8.81Q107.44-8.63 107.91-6L107.91-6L106.78-6Q106.31-7.78 104.20-7.83L104.20-7.83Q101.53-7.64 101.39-4.31L101.39-4.31Q101.39-0.75 104.25-0.75L104.25-0.75Q105.28-0.75 106.03-1.31L106.03-1.31Q106.97-2.06 106.92-3.61L106.92-3.61Z" transform="translate(-0.890625, 8.8125)"></path></g></g></g></g></g><defs v-gra="od"></defs></svg>